<svg width="74" height="32" viewBox="0 0 74 32" fill="none" xmlns="http://www.w3.org/2000/svg">
<g clip-path="url(#clip0_2332_26175)">
<path d="M43.5837 0.00585938V5.29686H39.832V9.57884H43.5837V17.6155C43.5837 22.6237 46.4882 25.29 50.8469 25.29C51.5722 25.29 52.582 25.2086 53.2677 25.0472V20.8866C52.8233 21.0084 52.2995 21.0485 51.815 21.0485C49.6359 21.0485 48.1035 20.0387 48.1035 17.5342V9.57884H53.2677V5.29686H48.1035V0.00585938H43.5837Z" fill="white"/>
<path fill-rule="evenodd" clip-rule="evenodd" d="M64.3575 4.89062C69.6828 4.89062 73.9999 8.97103 73.9999 14.7469C73.9999 15.2711 73.9582 16.2824 73.8785 16.6454H58.7478C59.3132 19.5546 61.3297 21.3718 64.5171 21.3718C66.9394 21.3718 68.8361 20.241 69.2384 18.544H73.7571C73.0317 22.7042 69.2785 25.4507 64.4373 25.4507C58.668 25.4507 54.1895 20.8056 54.1895 15.0699C54.1895 9.33409 58.668 4.89062 64.3575 4.89062ZM64.1147 8.97103C61.4511 8.97103 59.5148 10.3847 58.8692 12.8082H69.117C68.7146 10.5466 66.7779 8.97103 64.1147 8.97103Z" fill="white"/>
<path d="M23.4584 5.29688L28.7436 18.7471L34.0288 5.29688H38.87L27.7354 31.9955H22.8926L26.4446 23.9981L18.6168 5.29688H23.4584ZM12.1094 9.61894H0V5.29688H17.6313V9.61894L5.48833 20.727H17.6313V25.0491H0V20.727L12.1094 9.61894Z" fill="white"/>
</g>
<defs>
<clipPath id="clip0_2332_26175">
<rect width="74" height="32" fill="white"/>
</clipPath>
</defs>
</svg>
